<svg width="24" height="24" viewBox="0 0 24 24" fill="none" xmlns="http://www.w3.org/2000/svg"><path d="M12 24c6.627 0 12-5.373 12-12S18.627 0 12 0 0 5.373 0 12s5.373 12 12 12z" fill="#1A212F"/><path fill-rule="evenodd" clip-rule="evenodd" d="M15.817 17.428l2.17-9.754a.528.528 0 00-.019-.295.56.56 0 00-.175-.244.628.628 0 00-.596-.099L4.29 11.614a.445.445 0 00-.213.158.405.405 0 00.01.486c.054.07.13.123.219.15l3.298 1.044 7.66-4.564a.168.168 0 01.213.035.145.145 0 01-.02.203L9.469 14.28l-.332 3.027.041.043a.259.259 0 00.182.08.274.274 0 00.188-.067l1.912-1.698 3.157 2.195a.809.809 0 00.726.094.766.766 0 00.309-.205.704.704 0 00.166-.32z" fill="#FFFDFB"/></svg>