<svg xmlns="http://www.w3.org/2000/svg" version="1.1" xmlns:xlink="http://www.w3.org/1999/xlink" xmlns:svgjs="http://svgjs.com/svgjs" width="256" height="256"><svg width="256" height="256" viewBox="0 0 256 256" fill="none" xmlns="http://www.w3.org/2000/svg">
<path d="M179.188 51.1685L227.274 3.06314C233.815 -3.48045 245 1.15401 245 10.4088V138.953C244.999 97.2587 211.998 71.9014 179.188 51.1685Z" fill="#FF7236"></path>
<path d="M244.998 138.954C244.998 203.597 192.616 256 127.999 256C63.3827 256 11 203.597 11 138.954C11 74.3123 63.3818 29.2239 127.999 29.2239C192.617 29.2239 244.998 74.3115 244.998 138.954Z" fill="#FFAA50"></path>
<path d="M76.8126 138.953C76.8126 82.617 109.147 41.1588 152.207 31.4275C144.393 29.9932 136.303 29.2226 128 29.2226C106.469 29.2226 86.3652 34.3227 69.0366 43.3895L28.7262 3.06314C22.1852 -3.48045 11 1.15401 11 10.4088V138.953C11 136.315 11 136.329 11 138.953C11 203.596 63.3827 255.999 127.999 255.999C136.303 255.999 144.393 255.105 152.206 253.46C109.147 242.301 76.8126 195.288 76.8126 138.953Z" fill="#FF7236"></path>
<path d="M102.406 212.107C116.541 212.107 127.999 202.281 127.999 190.161C127.999 178.04 116.541 168.215 102.406 168.215C88.271 168.215 76.8125 178.04 76.8125 190.161C76.8125 202.281 88.271 212.107 102.406 212.107Z" fill="#FFFDFB"></path>
<path d="M153.597 212.107C167.732 212.107 179.19 202.281 179.19 190.161C179.19 178.04 167.732 168.215 153.597 168.215C139.462 168.215 128.003 178.04 128.003 190.161C128.003 202.281 139.462 212.107 153.597 212.107Z" fill="#FFFDFB"></path>
<path d="M128 190.165C136.077 190.165 142.625 183.615 142.625 175.535C142.625 167.454 136.077 160.904 128 160.904C119.923 160.904 113.375 167.454 113.375 175.535C113.375 183.615 119.923 190.165 128 190.165Z" fill="#FF913C"></path>
<path d="M84.1246 146.268C80.0826 146.268 76.8125 142.993 76.8125 138.953V131.638C76.8125 127.599 80.0834 124.323 84.1246 124.323C88.1659 124.323 91.4368 127.599 91.4368 131.638V138.953C91.4368 142.993 88.1659 146.268 84.1246 146.268Z" fill="#1A212F"></path>
<path d="M171.875 146.268C167.833 146.268 164.562 142.993 164.562 138.953V131.638C164.562 127.599 167.833 124.323 171.875 124.323C175.917 124.323 179.187 127.599 179.187 131.638V138.953C179.188 142.993 175.917 146.268 171.875 146.268Z" fill="#1A212F"></path>
</svg><style>@media (prefers-color-scheme: light) { :root { filter: none; } }
</style></svg>