<svg width="60" height="60" viewBox="0 0 60 60" fill="none" xmlns="http://www.w3.org/2000/svg"><g clip-path="url(#clip0_250_12)"><path fill-rule="evenodd" clip-rule="evenodd" d="M60 30C60 13.443 46.557 0 30 0 13.443 0 0 13.443 0 30c0 16.557 13.443 30 30 30 16.557 0 30-13.443 30-30z" fill="#FAC663"/><path d="M48.13 27.445c-.011-.268-.17-.765-1.087-1.082l-24.471-8.422c-1.255-.433-2.647.182-3.103 1.369l-.663 1.723-1.49 3.876c-.457 1.188.192 2.506 1.447 2.938l7.132 2.454c-.135.78.09 1.552.583 2.141l-1.52 3.952a.49.49 0 01-.46.304h-4.45v-1.375c0-.759-.651-1.375-1.452-1.375h-.97a.472.472 0 00-.483.458v7.333c0 .254.217.459.484.459h.969c.8 0 1.452-.617 1.452-1.375v-1.375h4.45c1.423 0 2.705-.85 3.19-2.114l1.488-3.868a2.898 2.898 0 002.084-1.319l8.334 2.869c.273.093.55.138.826.138.832 0 1.623-.41 2.066-1.093l.956.329a.998.998 0 00.74-.03.937.937 0 00.5-.517l1.326-3.447a.894.894 0 00-.414-1.099l1.553-.685c.885-.391.996-.899.984-1.167zM19.08 40.823a.472.472 0 01-.484.458h-.485v-6.417h.485c.267 0 .484.206.484.459v5.5zm7.698-3.803c-.347.904-1.263 1.511-2.28 1.511h-4.45v-.917h4.45c.612 0 1.162-.364 1.37-.907l1.39-3.615a3.005 3.005 0 00.9.337l-1.38 3.591zm2.053-4.446a2.06 2.06 0 01-.73-.112 1.978 1.978 0 01-.696-.413 1.76 1.76 0 01-.575-1.426l3.495 1.203c-.353.46-.907.73-1.494.748zm16.267-2.492l-1.324 3.447-.911-.314 1.256-3.267.257-.114.722.248zm-24.39-5.955c.25.087-.251-.086 0 0l18.557 6.385c.487.168 1.088.25 1.7.25.67 0 1.355-.098 1.922-.289l-1.1 2.859c-.274.713-1.11 1.082-1.862.822l-20.831-7.169c-.753-.259-1.142-1.05-.868-1.762l.828-2.155a2.39 2.39 0 001.199.902l.455.157z" fill="#FFFDFB"/></g><defs><clipPath id="clip0_250_12"><path fill="#fff" d="M0 0h60v60H0z"/></clipPath></defs></svg>