<svg width="60" height="60" viewBox="0 0 60 60" fill="none" xmlns="http://www.w3.org/2000/svg"><rect width="60" height="60" rx="30" fill="#FAC663"/><path d="M31.094 29.736c-1.51 0-2.694.974-3.406 1.736a8.82 8.82 0 00-.481.562l-1.505-1.45a1 1 0 00-1.388 1.44l1.608 1.55-1.608 1.55a1 1 0 001.388 1.44l1.563-1.506c.14.153.298.315.474.478.73.679 1.9 1.497 3.355 1.497 1.366 0 2.556-.593 3.38-1.222a5.667 5.667 0 001.027-1c.128-.166.245-.344.335-.525.08-.16.184-.415.184-.712 0-.286-.098-.54-.169-.697a3.698 3.698 0 00-.314-.55 6.402 6.402 0 00-1.002-1.13c-.807-.723-2.018-1.46-3.441-1.46z" fill="#FFFDFB"/><path fill-rule="evenodd" clip-rule="evenodd" d="M45.269 25.64l2.193 14.774a.961.961 0 01-.24.785c-.195.215-.477.34-.773.34H13.55c-.296 0-.579-.125-.773-.34a.96.96 0 01-.24-.785L14.73 25.64c.072-.485.504-.846 1.013-.846h2.687c.47-2.037 2.33-2.644 2.538-2.71 1.007-1.945 3.082-2.035 3.303-2.043 1.229-1.276 2.883-1.283 3.765-1.064 1.552-.89 3.141-.45 3.926 0 .881-.219 2.536-.212 3.765 1.064.223.008 2.295.098 3.302 2.042.206.066 2.066.67 2.539 2.711h2.686c.51 0 .942.36 1.014.846zm-29.422-.01l-2.293 15.073h32.892L44.153 25.63H15.847z" fill="#FFFDFB"/></svg>