<svg width="957" height="1048" viewBox="0 0 957 1048" fill="none" xmlns="http://www.w3.org/2000/svg"><path d="M794.347 97.882c45.577 82.544 17.713 214.318 44.497 322.325 26.785 108.008 108.218 192.037 117.29 280.523 9.073 88.273-54.217 180.79-140.618 250.602-86.186 69.598-195.484 116.498-282.534 86.788-87.266-29.71-152.283-136.229-240.629-205.193-88.345-69.175-200.02-100.792-253.589-172.514-53.785-71.51-49.68-182.913.432-262.911 50.113-79.997 146.019-128.59 232.205-198.19C357.803 129.5 434.268 38.68 532.118 10.033c97.85-28.646 216.652 5.093 262.229 87.85z" fill="url(#paint0_linear_220_2)"/><defs><linearGradient id="paint0_linear_220_2" x1="478.5" y1="-62.382" x2="478.5" y2="784.378" gradientUnits="userSpaceOnUse"><stop stop-color="#FF9B53"/><stop offset="1" stop-color="#F8B653"/></linearGradient></defs></svg>