<svg width="526" height="569" viewBox="0 0 526 569" fill="none" xmlns="http://www.w3.org/2000/svg"><path d="M352.942 23.428c34.872 34.29 38.809 108.891 67.548 160.243 28.739 51.353 82.25 79.347 99.178 123.958 16.898 44.499-2.818 105.504-37.561 159.165-34.663 53.506-84.354 99.667-133.224 101.267-48.981 1.644-97.169-41.385-152.146-60.114-55.006-18.841-116.8-13.382-154.28-40.421C4.895 440.641-8.435 381.412 6.242 329.572c14.676-51.84 57.247-96.248 91.91-149.754 34.743-53.66 61.467-116.376 107.802-150.708 46.335-34.332 112.088-40.085 146.988-5.682z" fill="url(#paint0_linear_543_3)"/><defs><linearGradient id="paint0_linear_543_3" x1="19.383" y1="214.267" x2="406.104" y2="497.104" gradientUnits="userSpaceOnUse"><stop stop-color="#FEA653"/><stop offset="1" stop-color="#F8B653"/></linearGradient></defs></svg>