<svg width="84" height="89" viewBox="0 0 84 89" fill="none" xmlns="http://www.w3.org/2000/svg"><path d="M25.478 19.34c6.47 13.715-7.963 30.418-19.661 22.226C.77 38.033-.95 31.196.489 25.004c3.324-14.302 19.436-17.44 24.989-5.663zm9.517 9.984C22.055 20.264 33.51-4.343 48.325.666c6.748 2.282 10.363 10.675 7.374 19.299-3.348 9.666-13.43 14.453-20.704 9.36z" fill="#FAC663" fill-opacity=".15"/><path d="M11.035 70.625c2.144.764 5.556 2.678 8.927 4.97 3.565 2.419 7.083 5.258 9.012 7.591 5.202 6.313 17.022 8.129 21.4-2.225 4.046-9.573-2.693-13.584 1.316-22.534 4.057-9.041.82-17.043-5.157-20.78-5.532-3.457-13.41-3.26-20.013 3.158-7.034 6.84-13.092 1.885-20.699 8.96-8.244 7.657-2.46 18.133 5.214 20.86zm46.734-25.353c-3.66-2.563-5.321-6.883-4.798-11.347 1.557-13.276 19.43-20.648 27.164-10.973 9.788 12.232-9.434 31.375-22.367 22.32z" fill="#FAC663" fill-opacity=".15"/><path d="M53.286 64.122c2.937-13.038 21.449-18.515 28.129-8.036 8.047 12.622-11.11 29.346-23.568 20.623-3.998-2.8-5.678-7.63-4.561-12.587z" fill="#FAC663" fill-opacity=".15"/></svg>