<svg width="24" height="24" viewBox="0 0 24 24" fill="none" xmlns="http://www.w3.org/2000/svg"><path d="M12 24c6.627 0 12-5.373 12-12S18.627 0 12 0 0 5.373 0 12s5.373 12 12 12z" fill="#1A212F"/><path d="M12 4C9.813 4 8.017 5.818 8.017 8.032S9.813 12.064 12 12.064c2.187 0 3.983-1.818 3.983-4.032S14.187 4 12 4zm0 2.304c.956 0 1.707.76 1.707 1.728 0 .967-.751 1.728-1.707 1.728-.956 0-1.707-.76-1.707-1.728S11.044 6.304 12 6.304zM9.128 12.5a1.142 1.142 0 00-1.097.896 1.162 1.162 0 00.6 1.287c.386.202.8.36 1.226.495l-1.573 1.908a1.16 1.16 0 00-.218 1.147 1.127 1.127 0 001.96.329L12 16.168l1.974 2.394a1.127 1.127 0 001.96-.329 1.16 1.16 0 00-.218-1.147l-1.573-1.908c.426-.135.84-.293 1.222-.495.56-.293.778-.986.489-1.553a1.128 1.128 0 00-1.534-.495 4.971 4.971 0 01-2.32.58 4.971 4.971 0 01-2.32-.58c-.17-.09-.36-.14-.552-.135z" fill="#FFFDFB"/></svg>