<svg width="102" height="105" viewBox="0 0 102 105" fill="none" xmlns="http://www.w3.org/2000/svg"><path d="M16.839 63.31c17.983-2.663 31.987 19.634 18.472 30.193-5.828 4.553-14.26 4.159-20.837.37-15.19-8.75-13.077-28.279 2.365-30.563zm14.793-7.442C16.683 67.548-7.418 45.925 3.557 30.7c5-6.936 15.885-8.171 24.694-1.767 9.876 7.175 11.784 20.37 3.38 26.936z" fill="#FAC663" fill-opacity=".15"/><path d="M70.41 97.578c1.633-2.19 5.031-5.434 8.847-8.5 4.03-3.244 8.524-6.29 11.877-7.69 9.065-3.772 15.327-16.675 5.028-25.267-9.521-7.942-16.497-1.616-25.318-9.3-8.91-7.77-19.212-6.83-25.603-1.282-5.915 5.137-8.478 14.224-3.472 24.001 5.337 10.417-2.477 15.638 2.925 26.792 5.844 12.086 19.88 9.088 25.716 1.246zM57.941 35.314c-4.228 3.304-9.758 3.71-14.682 1.568-14.64-6.373-16.75-29.381-2.94-34.89 17.462-6.974 32.563 21.65 17.622 33.322z" fill="#FAC663" fill-opacity=".15"/><path d="M77.925 46.965c-13.88-7.872-13.593-30.956.762-34.979 17.292-4.846 29.647 22.866 15.256 34.11-4.619 3.608-10.742 3.861-16.018.869z" fill="#FAC663" fill-opacity=".15"/></svg>