<svg width="81" height="80" viewBox="0 0 81 80" fill="none" xmlns="http://www.w3.org/2000/svg"><path d="M65.992 28.425c-13.525 3.672-26.44-12.172-17.113-21.5 4.023-4.022 10.526-4.483 15.938-2.17 12.5 5.339 12.79 20.518 1.175 23.67zM55.38 35.476c10.318-10.318 30.908 4.094 23.983 16.773-3.155 5.777-11.378 7.71-18.757 3.594-8.273-4.613-11.026-14.567-5.226-20.367z" fill="#FFFEFD" fill-opacity=".2"/><path d="M21.574 6.977c-1.037 1.829-3.325 4.626-5.95 7.325-2.773 2.855-5.92 5.6-8.353 6.978-6.58 3.715-10.119 14.186-1.384 19.847 8.075 5.232 12.804-.255 20.318 4.844 7.59 5.156 15.396 3.502 19.753-1.335 4.031-4.479 5.108-11.684.314-18.735-5.11-7.511.37-12.226-4.862-20.297C35.749-3.142 25.282.43 21.574 6.977zm15.647 46.657c2.919-2.919 7.118-3.732 11.102-2.534 11.846 3.566 15.713 21.033 5.665 26.511-12.704 6.934-27.079-13.666-16.767-23.977z" fill="#FFFEFD" fill-opacity=".2"/><path d="M20.763 46.502c11.41 4.784 13.447 22.527 2.836 26.914C10.817 78.702-1.364 58.553 8.569 48.62c3.187-3.188 7.857-3.937 12.194-2.118z" fill="#FFFEFD" fill-opacity=".2"/></svg>