<svg viewBox="0 0 36 36" xmlns="http://www.w3.org/2000/svg" fill-rule="evenodd" clip-rule="evenodd" stroke-linejoin="round" stroke-miterlimit="2"><path d="M36 18c0 4.808-1.872 9.328-5.272 12.728A17.885 17.885 0 0118.002 36H18a17.882 17.882 0 01-12.728-5.272C1.872 27.328 0 22.808 0 18S1.872 8.672 5.272 5.272C8.672 1.872 13.192 0 18 0h.002a17.885 17.885 0 0112.726 5.272C34.128 8.672 36 13.192 36 18z" fill="#ff7236" fill-rule="nonzero"/><path d="M20.844 26.89c-.494-.136-1.371-.224-2.289-.237-.969-.014-1.985.055-2.642.237-1.775.495-4.189-.701-3.66-3.185.247-1.157.816-1.698 1.373-2.227.55-.523 1.088-1.035 1.295-2.115.419-2.2 2.05-3.261 3.634-3.179a3.3 3.3 0 011.578.499c.812.508 1.462 1.401 1.706 2.68.206 1.082.743 1.594 1.291 2.117.556.529 1.123 1.069 1.369 2.225.532 2.486-1.888 3.675-3.655 3.185zm4.715-4.703c-3.215 0-3.72-4.962-.756-6.662 2.545-1.461 5.112 1.209 3.878 4.287-.535 1.333-1.735 2.375-3.122 2.375zM13.891 20.21c1.142-2.794-1.565-6.208-4.15-5.134C6.626 16.37 8 21.949 11.424 21.949c1.099 0 2.033-.677 2.467-1.739zm3.958-5.549c-.48.894-1.344 1.478-2.35 1.478-3.555 0-4.628-6.035-1.243-7.031 2.676-.788 5.02 2.893 3.593 5.553zm5.152-5.555c3.379.993 2.314 7.033-1.242 7.033-2 0-3.241-2.193-2.61-4.416.562-1.984 2.313-3.069 3.852-2.617z" fill="#fffefd" fill-rule="nonzero"/></svg>