<svg width="18" height="18" viewBox="0 0 18 18" fill="none" xmlns="http://www.w3.org/2000/svg"><path d="M17.995 5.923C17.89 3.723 16.265 2 14.293 2H3.707C1.735 2 .109 3.723.005 5.923.002 5.996 0 14.107 0 14.107 0 15.15.76 16 1.693 16h14.614C17.24 16 18 15.15 18 14.107c0 0-.002-8.111-.005-8.184zM3.707 2.875h10.586c1.415 0 2.604 1.124 2.87 2.633h-.806c-.252-1.032-1.087-1.758-2.064-1.758H9.166c-.216 0 .391.196.391.437 0 .242-.607.438-.39.438h5.126c.544 0 1.019.354 1.235.883h-.39c-.976 0-1.776.857-1.83 1.933A12.993 12.993 0 009 6.717c-1.47 0-2.94.241-4.307.724-.055-1.076-.856-1.933-1.832-1.933h-.39c.217-.529.692-.883 1.236-.883h5.46c.215 0 .39-.196.39-.438 0-.241-.175-.437-.39-.437h-5.46c-.978 0-1.813.726-2.065 1.758H.838C1.103 4 2.292 2.875 3.707 2.875zm9.597 5.485v1.486c0 .648-.472 1.176-1.052 1.176H5.747c-.58 0-1.051-.528-1.051-1.176V8.36c2.716-1.026 5.892-1.026 8.608 0zm3.913 5.747c0 .561-.408 1.018-.91 1.018H1.693c-.502 0-.91-.457-.91-1.018V6.383H2.86c.58 0 1.052.528 1.052 1.176v2.287c0 1.13.823 2.05 1.834 2.05h7.11c.45 0 1.23-.552 1.23-2.05V7.56c0-.648.472-1.176 1.051-1.176h2.08v7.724z" fill="#777"/></svg>