<svg width="60" height="60" viewBox="0 0 60 60" fill="none" xmlns="http://www.w3.org/2000/svg">
<rect width="60" height="60" rx="30" fill="#FAC663"/>
<path d="M31.0938 29.7365C29.5837 29.7364 28.4005 30.7098 27.6881 31.4725C27.509 31.6642 27.3482 31.855 27.207 32.0342L25.7017 30.5838C25.304 30.2006 24.6709 30.2124 24.2877 30.6101C23.9045 31.0078 23.9163 31.6408 24.314 32.024L25.9224 33.5738L24.314 35.1235C23.9163 35.5067 23.9045 36.1398 24.2877 36.5375C24.6709 36.9352 25.304 36.947 25.7017 36.5638L27.2647 35.0578C27.4046 35.211 27.5631 35.3734 27.7388 35.5364C28.4699 36.2147 29.6384 37.0328 31.0938 37.0328C32.4599 37.0328 33.6498 36.4404 34.474 35.8107C34.8908 35.4922 35.2427 35.1428 35.5006 34.8102C35.6291 34.6445 35.7464 34.4674 35.8361 34.2863C35.9154 34.1263 36.0202 33.871 36.0202 33.5738C36.0202 33.288 35.9221 33.034 35.8515 32.8775C35.7691 32.695 35.6598 32.5086 35.5367 32.3279C35.2897 31.9654 34.9473 31.5682 34.5346 31.1979C33.7277 30.4741 32.5173 29.7365 31.0938 29.7365Z" fill="#FFFDFB"/>
<path fill-rule="evenodd" clip-rule="evenodd" d="M45.2689 25.64L47.4623 40.4139C47.5041 40.6967 47.4164 40.983 47.2221 41.1988C47.0274 41.4145 46.7454 41.5385 46.4486 41.5385H13.5512C13.2545 41.5385 12.9721 41.4145 12.7778 41.1988C12.5834 40.983 12.4957 40.6967 12.5378 40.4139L14.7309 25.64C14.8029 25.1549 15.2348 24.7941 15.7443 24.7941H18.4307C18.9018 22.7572 20.7606 22.15 20.9693 22.0832C21.976 20.1392 24.0513 20.0489 24.2716 20.0415C25.5006 18.7648 27.1552 18.7584 28.0371 18.9765C29.5891 18.0872 31.1781 18.527 31.9627 18.9765C32.8444 18.7584 34.4987 18.7645 35.728 20.0415C35.9506 20.0489 38.023 20.1392 39.0302 22.083C39.2355 22.1487 41.0965 22.7531 41.5689 24.7941H44.2555C44.765 24.7941 45.1969 25.1549 45.2689 25.64ZM15.8471 25.6296L13.5536 40.703H46.4463L44.1527 25.6296H15.8471Z" fill="#FFFDFB"/>
</svg>
