<svg width="957" height="1048" viewBox="0 0 957 1048" fill="none" xmlns="http://www.w3.org/2000/svg">
<path d="M794.347 97.8825C839.924 180.426 812.06 312.2 838.844 420.207C865.629 528.215 947.062 612.244 956.134 700.73C965.207 789.003 901.917 881.52 815.516 951.332C729.33 1020.93 620.032 1067.83 532.982 1038.12C445.716 1008.41 380.699 901.891 292.353 832.927C204.008 763.752 92.3334 732.135 38.7643 660.413C-15.0208 588.903 -10.9167 477.5 39.1963 397.502C89.3093 317.505 185.215 268.912 271.401 199.312C357.803 129.5 434.268 38.6799 532.118 10.0335C629.968 -18.6129 748.77 15.1262 794.347 97.8825Z" fill="url(#paint0_linear_220_2)"/>
<defs>
<linearGradient id="paint0_linear_220_2" x1="478.5" y1="-62.3821" x2="478.5" y2="784.378" gradientUnits="userSpaceOnUse">
<stop stop-color="#FF9B53"/>
<stop offset="1" stop-color="#F8B653"/>
</linearGradient>
</defs>
</svg>
