<svg width="24" height="24" viewBox="0 0 24 24" fill="none" xmlns="http://www.w3.org/2000/svg">
<path d="M12 24C18.6274 24 24 18.6274 24 12C24 5.37258 18.6274 0 12 0C5.37258 0 0 5.37258 0 12C0 18.6274 5.37258 24 12 24Z" fill="#1A212F"/>
<path d="M12 4C9.81302 4 8.01721 5.81799 8.01721 8.03197C8.01721 10.246 9.81302 12.0639 12 12.0639C14.187 12.0639 15.9828 10.246 15.9828 8.03197C15.9828 5.81799 14.187 4 12 4ZM12 6.30399C12.9557 6.30399 13.7069 7.06448 13.7069 8.03197C13.7069 8.99947 12.9557 9.75996 12 9.75996C11.0443 9.75996 10.2931 8.99947 10.2931 8.03197C10.2931 7.06448 11.0443 6.30399 12 6.30399ZM9.12848 12.5004C8.60396 12.5049 8.15056 12.8739 8.03054 13.3959C7.91497 13.9134 8.1639 14.4444 8.63063 14.6829C9.01735 14.8854 9.43074 15.0429 9.85747 15.1779L8.28391 17.0859C8.00832 17.4009 7.92831 17.8419 8.0661 18.2334C8.2039 18.6294 8.54173 18.9129 8.95068 18.9849C9.35962 19.0524 9.77302 18.8904 10.0264 18.5619L12 16.1679L13.9736 18.5619C14.227 18.8904 14.6404 19.0524 15.0493 18.9849C15.4583 18.9129 15.7961 18.6294 15.9339 18.2334C16.0717 17.8419 15.9917 17.4009 15.7161 17.0859L14.1425 15.1779C14.5693 15.0429 14.9826 14.8854 15.3649 14.6829C15.925 14.3904 16.1428 13.6974 15.8539 13.1304C15.5694 12.5634 14.8804 12.3429 14.3203 12.6354C13.6136 13.0044 12.8357 13.2159 12 13.2159C11.1643 13.2159 10.3864 13.0044 9.67967 12.6354C9.51076 12.5454 9.31962 12.4959 9.12848 12.5004Z" fill="#FFFDFB"/>
</svg>
