<?xml version="1.0" encoding="UTF-8" standalone="no"?>
<!DOCTYPE svg PUBLIC "-//W3C//DTD SVG 1.1//EN" "http://www.w3.org/Graphics/SVG/1.1/DTD/svg11.dtd">
<svg width="100%" height="100%" viewBox="0 0 36 36" version="1.1" xmlns="http://www.w3.org/2000/svg" xmlns:xlink="http://www.w3.org/1999/xlink" xml:space="preserve" xmlns:serif="http://www.serif.com/" style="fill-rule:evenodd;clip-rule:evenodd;stroke-linejoin:round;stroke-miterlimit:2;">
    <path d="M36,18C36,22.808 34.128,27.328 30.728,30.728C27.329,34.127 22.809,35.999 18.002,36L18,36C13.192,36 8.672,34.128 5.272,30.728C1.872,27.328 0,22.808 0,18C0,13.192 1.872,8.672 5.272,5.272C8.672,1.872 13.192,0 18,0L18.002,0C22.809,0.001 27.329,1.873 30.728,5.272C34.128,8.672 36,13.192 36,18Z" style="fill:rgb(255,114,54);fill-rule:nonzero;"/>
    <path d="M20.844,26.89C20.35,26.754 19.473,26.666 18.555,26.653C17.586,26.639 16.57,26.708 15.913,26.89C14.138,27.385 11.724,26.189 12.253,23.705C12.5,22.548 13.069,22.007 13.626,21.478C14.176,20.955 14.714,20.443 14.921,19.363C15.34,17.163 16.971,16.102 18.555,16.184C19.104,16.213 19.647,16.379 20.133,16.683C20.945,17.191 21.595,18.084 21.839,19.363C22.045,20.445 22.582,20.957 23.13,21.48C23.686,22.009 24.253,22.549 24.499,23.705C25.031,26.191 22.611,27.38 20.844,26.89ZM25.559,22.187C22.344,22.187 21.839,17.225 24.803,15.525C27.348,14.064 29.915,16.734 28.681,19.812C28.146,21.145 26.946,22.187 25.559,22.187ZM13.891,20.21C15.033,17.416 12.326,14.002 9.741,15.076C6.626,16.37 8,21.949 11.424,21.949C12.523,21.949 13.457,21.272 13.891,20.21ZM17.849,14.661C17.369,15.555 16.505,16.139 15.499,16.139C11.944,16.139 10.871,10.104 14.256,9.108C16.932,8.32 19.276,12.001 17.849,14.661ZM23.001,9.106C26.38,10.099 25.315,16.139 21.759,16.139C19.759,16.139 18.518,13.946 19.149,11.723C19.711,9.739 21.462,8.654 23.001,9.106Z" style="fill:rgb(255,254,253);fill-rule:nonzero;"/>
</svg>
