<svg width="81" height="80" viewBox="0 0 81 80" fill="none" xmlns="http://www.w3.org/2000/svg">
<path d="M65.9924 28.4247C52.467 32.0975 39.5517 16.2532 48.8792 6.92578C52.9021 2.90288 59.4045 2.44227 64.8169 4.75411C77.3167 10.094 77.6062 25.2729 65.9924 28.4247Z" fill="#FFFEFD" fill-opacity="0.2"/>
<path d="M55.3801 35.4758C65.6975 25.1584 86.2878 39.5702 79.363 52.2495C76.2076 58.0258 67.985 59.9596 60.6059 55.8427C52.3333 51.2302 49.5798 41.276 55.3801 35.4758Z" fill="#FFFEFD" fill-opacity="0.2"/>
<path d="M21.5743 6.977C20.5371 8.80551 18.249 11.6034 15.624 14.302C12.8515 17.1568 9.70425 19.9012 7.27118 21.2801C0.690871 24.9954 -2.84803 35.4657 5.8867 41.1267C13.9624 46.3592 18.6911 40.8724 26.2051 45.9707C33.7954 51.127 41.6007 49.4733 45.9576 44.6355C49.9894 40.1575 51.0655 32.9515 46.2719 25.9011C41.1622 18.3898 46.6421 13.6752 41.4096 5.60377C35.7485 -3.14235 25.2822 0.43008 21.5743 6.977Z" fill="#FFFEFD" fill-opacity="0.2"/>
<path d="M37.2211 53.6336C40.1395 50.7152 44.339 49.9019 48.3231 51.1005C60.1688 54.6656 64.036 72.1327 53.9884 77.6114C41.2843 84.5451 26.9093 63.9453 37.2211 53.6336Z" fill="#FFFEFD" fill-opacity="0.2"/>
<path d="M20.7627 46.5021C32.1723 51.286 34.2101 69.0288 23.5986 73.4164C10.817 78.7021 -1.36415 58.5525 8.56871 48.6196C11.7564 45.4319 16.4256 44.6833 20.7627 46.5021Z" fill="#FFFEFD" fill-opacity="0.2"/>
</svg>
