<svg width="113" height="110" viewBox="0 0 113 110" fill="none" xmlns="http://www.w3.org/2000/svg">
<path d="M29.261 29.8096C41.1975 44.4077 28.8123 68.8901 12.23 62.5248C5.07808 59.7794 0.943533 52.0502 0.814628 44.1484C0.517719 25.8988 19.014 17.2736 29.261 29.8096Z" fill="#FAC663" fill-opacity="0.15"/>
<path d="M43.7508 38.992C25.4085 31.9511 31.8213 -1.17016 51.2046 0.420407C60.0353 1.14581 66.9244 10.1834 65.9142 21.4824C64.7852 34.148 54.0625 42.9503 43.7508 38.992Z" fill="#FAC663" fill-opacity="0.15"/>
<path d="M27.2774 96.0068C30.0939 96.2835 34.7881 97.5672 39.5453 99.3185C44.5754 101.166 49.6755 103.533 52.7054 105.768C60.8828 111.819 75.693 110.458 77.8569 96.6541C79.856 83.8923 70.5176 81.0783 72.6599 69.0792C74.8317 56.9548 68.5158 48.2767 60.1792 45.5654C52.463 43.057 43.0162 45.6624 36.9817 55.3865C30.5543 65.7496 21.7528 61.593 14.7044 72.4121C7.06198 84.1247 17.1963 95.0231 27.2774 96.0068Z" fill="#FAC663" fill-opacity="0.15"/>
<path d="M76.0323 51.385C70.844 49.3934 67.5399 44.6825 66.8265 39.1401C64.7074 22.6601 84.0525 8.39772 96.2999 17.7438C111.793 29.5573 94.3645 58.422 76.0323 51.385Z" fill="#FAC663" fill-opacity="0.15"/>
<path d="M76.2997 75.4688C75.9179 58.86 96.6057 46.6926 107.822 57.3251C121.332 70.1317 103.253 96.0588 85.5941 89.2803C79.927 87.1049 76.4446 81.7825 76.2997 75.4688Z" fill="#FAC663" fill-opacity="0.15"/>
</svg>
