<svg width="32" height="58" viewBox="0 0 32 58" fill="none" xmlns="http://www.w3.org/2000/svg">
<g clip-path="url(#clip0_749_4)">
<path d="M24.4055 32.0063L7.59682 31.9976L4.31512 55.7257C4.14882 56.9278 5.08282 57.9999 6.29622 57.9999H25.7047C26.9182 57.9999 27.8521 56.9278 27.6858 55.7257L24.4055 32.0063Z" fill="#FF7236"/>
<path d="M7.07617 35.7611C9.73917 37.1847 12.7757 37.9977 16.0005 37.9977C19.2253 37.9977 22.2619 37.1847 24.9249 35.7611L24.4055 32.0058L7.59677 31.9971L7.07617 35.7611Z" fill="#FFAA50"/>
<path d="M23 6.99528L29.5759 0.418775C30.4704 -0.475825 32 0.157775 32 1.42298V18.9964C31.9999 13.2963 27.4869 9.82967 23 6.99528Z" fill="#FF7236"/>
<path d="M31.9998 18.9965C31.9998 27.8339 24.8363 34.9979 15.9999 34.9979C7.1634 34.9979 0 27.8338 0 18.9965C0 10.1592 7.1633 3.99512 15.9999 3.99512C24.8364 3.99512 31.9998 10.1591 31.9998 18.9965Z" fill="#FFAA50"/>
<path d="M9 18.9964C9 11.2947 13.4219 5.62687 19.3103 4.29647C18.2417 4.10037 17.1354 3.99507 16 3.99507C13.0556 3.99507 10.3064 4.69228 7.9366 5.93178L2.4241 0.418775C1.5296 -0.475825 0 0.157775 0 1.42298V18.9964C0 18.6377 0 18.6357 0 18.9964C0 27.8338 7.1634 34.9978 15.9999 34.9978C17.1354 34.9978 18.2417 34.8756 19.3102 34.6508C13.4219 33.1252 9 26.6981 9 18.9964Z" fill="#FF7236"/>
<path d="M12.4999 28.9971C14.4329 28.9971 15.9999 27.6539 15.9999 25.9969C15.9999 24.3399 14.4329 22.9966 12.4999 22.9966C10.567 22.9966 9 24.3399 9 25.9969C9 27.6539 10.567 28.9971 12.4999 28.9971Z" fill="#FFFDFB"/>
<path d="M19.4999 28.9971C21.4329 28.9971 22.9999 27.6539 22.9999 25.9969C22.9999 24.3399 21.4329 22.9966 19.4999 22.9966C17.567 22.9966 16 24.3399 16 25.9969C16 27.6539 17.567 28.9971 19.4999 28.9971Z" fill="#FFFDFB"/>
<path d="M16 25.9975C17.1046 25.9975 18 25.102 18 23.9973C18 22.8926 17.1046 21.9971 16 21.9971C14.8954 21.9971 14 22.8926 14 23.9973C14 25.102 14.8954 25.9975 16 25.9975Z" fill="#FF913C"/>
<path d="M22.9967 46.916C22.9517 46.3661 22.486 45.9574 21.9176 46.0024C21.3668 46.0482 20.9586 46.5317 21.0045 47.082L21.1939 49.3551C21.4471 52.3937 19.0495 54.9997 16.0006 54.9997C12.9518 54.9997 10.5541 52.3937 10.8072 49.3551L10.9966 47.082C11.0425 46.5317 10.6343 46.0482 10.0836 46.0024C9.51715 45.958 9.05025 46.3661 9.00435 46.916L8.08105 58H23.9203L22.9967 46.916Z" fill="#FFAA50"/>
<path d="M10 19.9963C9.4472 19.9963 9 19.5485 9 18.9962V17.9962C9 17.4439 9.4473 16.9961 10 16.9961C10.5526 16.9961 10.9999 17.4439 10.9999 17.9962V18.9962C10.9999 19.5485 10.5526 19.9963 10 19.9963Z" fill="#1A212F"/>
<path d="M22 19.9963C21.4472 19.9963 21 19.5485 21 18.9962V17.9962C21 17.4439 21.4473 16.9961 22 16.9961C22.5527 16.9961 22.9999 17.4439 22.9999 17.9962V18.9962C23 19.5485 22.5527 19.9963 22 19.9963Z" fill="#1A212F"/>
</g>
<defs>
<clipPath id="clip0_749_4">
<rect width="32" height="58" fill="white"/>
</clipPath>
</defs>
</svg>
