<svg display="none" xmlns="http://www.w3.org/2000/svg" xmlns:xlink="http://www.w3.org/1999/xlink">
  <symbol id="paw-ic" viewBox="0 0 36 36">
    <path d="M36 18C36 22.808 34.128 27.328 30.728 30.728C27.329 34.127 22.809 35.999 18.002 36H18C13.192 36 8.672 34.128 5.272 30.728C1.872 27.328 0 22.808 0 18C0 13.192 1.872 8.672 5.272 5.272C8.672 1.872 13.192 0 18 0H18.002C22.809 0.001 27.329 1.873 30.728 5.272C34.128 8.672 36 13.192 36 18Z" fill="#FF7236"/>
    <path d="M20.8439 26.89C20.3499 26.754 19.4729 26.666 18.5549 26.653C17.5859 26.639 16.5699 26.708 15.9129 26.89C14.1379 27.385 11.7239 26.189 12.2529 23.705C12.4999 22.548 13.0689 22.007 13.6259 21.478C14.1759 20.955 14.7139 20.443 14.9209 19.363C15.3399 17.163 16.9709 16.102 18.5549 16.184C19.1039 16.213 19.6469 16.379 20.1329 16.683C20.9449 17.191 21.5949 18.084 21.8389 19.363C22.0449 20.445 22.5819 20.957 23.1299 21.48C23.6859 22.009 24.2529 22.549 24.4989 23.705C25.0309 26.191 22.6109 27.38 20.8439 26.89ZM25.5589 22.187C22.3439 22.187 21.8389 17.225 24.8029 15.525C27.3479 14.064 29.9149 16.734 28.6809 19.812C28.1459 21.145 26.9459 22.187 25.5589 22.187ZM13.8909 20.21C15.0329 17.416 12.3259 14.002 9.74095 15.076C6.62595 16.37 7.99995 21.949 11.4239 21.949C12.5229 21.949 13.4569 21.272 13.8909 20.21ZM17.8489 14.661C17.3689 15.555 16.5049 16.139 15.4989 16.139C11.9439 16.139 10.8709 10.104 14.2559 9.10801C16.9319 8.32001 19.2759 12.001 17.8489 14.661ZM23.0009 9.10601C26.3799 10.099 25.3149 16.139 21.7589 16.139C19.7589 16.139 18.5179 13.946 19.1489 11.723C19.7109 9.73901 21.4619 8.65401 23.0009 9.10601Z" fill="#FFFEFD"/>
  </symbol>
</svg>
