<svg width="60" height="60" viewBox="0 0 60 60" fill="none" xmlns="http://www.w3.org/2000/svg">
<g clip-path="url(#clip0_250_12)">
<path fill-rule="evenodd" clip-rule="evenodd" d="M60 30C60 13.443 46.557 0 30 0C13.443 0 0 13.443 0 30C0 46.557 13.443 60 30 60C46.557 60 60 46.557 60 30Z" fill="#FAC663"/>
<path d="M48.1309 27.445C48.1189 27.177 47.9609 26.68 47.0429 26.363L22.5719 17.941C21.3169 17.508 19.9249 18.123 19.4689 19.31L18.8059 21.033L17.3159 24.909C16.8589 26.097 17.5079 27.415 18.7629 27.847L25.8949 30.301C25.7599 31.081 25.9859 31.853 26.4779 32.442L24.9579 36.394C24.8879 36.575 24.7039 36.698 24.4989 36.698H20.0479V35.323C20.0479 34.564 19.3969 33.948 18.5959 33.948H17.6269C17.3599 33.948 17.1429 34.153 17.1429 34.406V41.739C17.1429 41.993 17.3599 42.198 17.6269 42.198H18.5959C19.3969 42.198 20.0479 41.581 20.0479 40.823V39.448H24.4989C25.9209 39.448 27.2029 38.598 27.6879 37.334L29.1759 33.466C30.0269 33.353 30.7999 32.882 31.2599 32.147L39.5939 35.016C39.8669 35.109 40.1449 35.154 40.4199 35.154C41.2519 35.154 42.0429 34.744 42.4859 34.061L43.4419 34.39C43.5499 34.428 43.6619 34.446 43.7739 34.446C43.9129 34.446 44.0519 34.417 44.1819 34.36C44.4159 34.256 44.5939 34.073 44.6829 33.843L46.0079 30.396C46.1689 29.977 45.9849 29.517 45.5939 29.297L47.1469 28.612C48.0319 28.221 48.1429 27.713 48.1309 27.445ZM19.0799 40.823C19.0799 41.076 18.8629 41.281 18.5959 41.281H18.1109V34.864H18.5959C18.8629 34.864 19.0799 35.07 19.0799 35.323V40.823ZM26.7779 37.02C26.4309 37.924 25.5149 38.531 24.4989 38.531H20.0479V37.614H24.4989C25.1099 37.614 25.6599 37.25 25.8679 36.707L27.2579 33.092C27.4179 33.183 27.5889 33.261 27.7699 33.323C27.8989 33.368 28.0289 33.403 28.1589 33.429L26.7779 37.02ZM28.8309 32.574C28.8189 32.573 28.8079 32.573 28.7969 32.574C28.5669 32.577 28.3309 32.541 28.1009 32.462C27.8319 32.369 27.5969 32.226 27.4049 32.049C27.3879 32.028 27.3679 32.01 27.3469 31.992C26.9859 31.629 26.7929 31.135 26.8299 30.623L30.3249 31.826C29.9719 32.286 29.4179 32.556 28.8309 32.574ZM45.0979 30.082L43.7739 33.529L42.8629 33.215L44.1189 29.948L44.3759 29.834L45.0979 30.082ZM20.7079 24.127C20.9589 24.214 20.4569 24.041 20.7079 24.127L39.2649 30.512C39.7519 30.68 40.3529 30.762 40.9659 30.762C41.6359 30.762 42.3199 30.664 42.8869 30.473L41.7869 33.332C41.5129 34.045 40.6779 34.414 39.9249 34.154L19.0939 26.985C18.3409 26.726 17.9519 25.935 18.2259 25.223L19.0539 23.068C19.3309 23.47 19.7409 23.794 20.2529 23.97L20.7079 24.127Z" fill="#FFFDFB"/>
</g>
<defs>
<clipPath id="clip0_250_12">
<rect width="60" height="60" fill="white"/>
</clipPath>
</defs>
</svg>
