<svg width="84" height="89" viewBox="0 0 84 89" fill="none" xmlns="http://www.w3.org/2000/svg">
<path d="M25.478 19.3406C31.9477 33.055 17.5151 49.7577 5.81664 41.5664C0.771139 38.0335 -0.949219 31.1969 0.48945 25.0041C3.81276 10.7016 19.9246 7.56408 25.478 19.3406Z" fill="#FAC663" fill-opacity="0.15"/>
<path d="M34.9949 29.3241C22.0549 20.2634 33.5103 -4.34306 48.3243 0.665692C55.0733 2.9482 58.688 11.3414 55.6988 19.9645C52.3507 29.6312 42.2695 34.4178 34.9949 29.3241Z" fill="#FAC663" fill-opacity="0.15"/>
<path d="M11.0352 70.6253C13.1789 71.3886 16.5915 73.303 19.9622 75.5945C23.5271 78.014 27.0453 80.853 28.9741 83.1862C34.1756 89.499 45.9965 91.3149 50.3739 80.9609C54.4196 71.3882 47.6815 67.3768 51.6904 58.4272C55.7467 49.3856 52.5093 41.3844 46.5327 37.6478C41.0008 34.1903 33.1224 34.3879 26.5197 40.8052C19.486 47.6449 13.4284 42.6899 5.82129 49.7648C-2.4233 57.4217 3.36103 67.8982 11.0352 70.6253Z" fill="#FAC663" fill-opacity="0.15"/>
<path d="M57.7685 45.2715C54.1083 42.7085 52.4479 38.3893 52.971 33.9245C54.5277 20.6492 72.4001 13.2765 80.1355 22.9519C89.923 35.1842 70.7015 54.3272 57.7685 45.2715Z" fill="#FAC663" fill-opacity="0.15"/>
<path d="M53.2857 64.1221C56.2231 51.0839 74.735 45.6074 81.415 56.0864C89.4619 68.7084 70.3049 85.432 57.8472 76.709C53.8492 73.9096 52.1688 69.0784 53.2857 64.1221Z" fill="#FAC663" fill-opacity="0.15"/>
</svg>
