<svg width="102" height="105" viewBox="0 0 102 105" fill="none" xmlns="http://www.w3.org/2000/svg">
<path d="M16.8388 63.3099C34.8222 60.6467 48.8257 82.944 35.3114 93.5026C29.4828 98.0564 21.0508 97.6615 14.4738 93.873C-0.715813 85.1227 1.3974 65.5942 16.8388 63.3099Z" fill="#FAC663" fill-opacity="0.15"/>
<path d="M31.6316 55.8683C16.683 67.5474 -7.41849 45.9248 3.55691 30.6993C8.55779 23.7631 19.4416 22.5278 28.2506 28.9317C38.1268 36.1073 40.0354 49.3025 31.6316 55.8683Z" fill="#FAC663" fill-opacity="0.15"/>
<path d="M70.4103 97.5781C72.0426 95.3883 75.4412 92.1438 79.2565 89.0779C83.287 85.8338 87.781 82.7883 91.1336 81.3873C100.199 77.6161 106.461 64.7126 96.1625 56.1211C86.6409 48.1795 79.6655 54.5055 70.8438 46.8214C61.9335 39.0513 51.6319 39.9903 45.2406 45.5395C39.3259 50.6762 36.7632 59.763 41.7692 69.5404C47.1058 79.9572 39.2915 85.1779 44.6944 96.3325C50.5376 108.418 64.5731 105.42 70.4103 97.5781Z" fill="#FAC663" fill-opacity="0.15"/>
<path d="M57.9415 35.3142C53.7131 38.6178 48.183 39.0248 43.2592 36.882C28.6196 30.509 26.5098 7.50075 40.3194 1.99194C57.7812 -4.98172 72.8819 23.6415 57.9415 35.3142Z" fill="#FAC663" fill-opacity="0.15"/>
<path d="M77.925 46.9647C64.0455 39.0933 64.3319 16.0087 78.6874 11.986C95.979 7.13963 108.334 34.8522 93.9427 46.096C89.3241 49.7044 83.201 49.9572 77.925 46.9647Z" fill="#FAC663" fill-opacity="0.15"/>
</svg>
