<svg width="230" height="234" viewBox="0 0 230 234" fill="none" xmlns="http://www.w3.org/2000/svg">
<path d="M148.121 190.935C137.426 151.521 183.607 113.873 210.784 141.05C222.505 152.771 223.844 171.721 217.103 187.495C201.534 223.925 157.298 224.779 148.121 190.935Z" fill="#FAC663" fill-opacity="0.15"/>
<path d="M127.579 160.013C157.64 190.074 115.627 250.088 78.6813 229.915C61.8498 220.723 56.2194 196.762 68.2216 175.255C81.6687 151.144 110.679 143.113 127.579 160.013Z" fill="#FAC663" fill-opacity="0.15"/>
<path d="M210.652 61.4772C205.324 58.4558 197.172 51.7895 189.309 44.1414C180.991 36.0635 172.995 26.8933 168.978 19.8036C158.155 0.62937 127.644 -9.67731 111.141 15.7812C95.8876 39.3191 111.874 53.0961 97.0122 74.9968C81.9809 97.1199 86.7953 119.865 100.891 132.559C113.938 144.306 134.938 147.438 155.487 133.464C177.38 118.568 191.116 134.535 214.641 119.281C240.133 102.778 229.729 72.279 210.652 61.4772Z" fill="#FAC663" fill-opacity="0.15"/>
<path d="M74.674 107.105C83.1771 115.608 85.5445 127.846 82.0491 139.457C71.6522 173.98 20.7466 185.261 4.78665 155.983C-15.4119 118.965 44.6296 77.0602 74.674 107.105Z" fill="#FAC663" fill-opacity="0.15"/>
<path d="M95.4669 59.1368C81.5183 92.3899 29.8106 98.3394 17.0306 67.4179C1.63496 30.1724 60.3631 -5.33862 89.3036 23.6019C98.5913 32.8895 100.77 46.4962 95.4669 59.1368Z" fill="#FAC663" fill-opacity="0.15"/>
</svg>
