<svg width="84" height="85" viewBox="0 0 84 85" fill="none" xmlns="http://www.w3.org/2000/svg">
<path d="M71.0359 35.6711C55.9715 36.9493 45.2606 18.2454 56.9394 10.368C61.9765 6.97045 68.971 7.69967 74.2812 11.0817C86.5451 18.8932 83.9709 34.5754 71.0359 35.6711Z" fill="#FAC663" fill-opacity="0.15"/>
<path d="M58.4244 40.9669C71.3427 32.2534 90.4782 50.9029 80.7152 62.6762C76.2668 68.0396 67.1653 68.5089 60.1086 62.9043C52.1969 56.6241 51.162 45.8655 58.4244 40.9669Z" fill="#FAC663" fill-opacity="0.15"/>
<path d="M27.9256 5.36715C26.4767 7.05787 23.5151 9.51511 20.2144 11.8078C16.7273 14.2341 12.8632 16.4773 10.0169 17.4467C2.32171 20.0543 -3.42529 30.1797 4.77822 37.625C12.3631 44.5072 18.4277 39.733 25.4414 46.373C32.525 53.0869 41.13 52.8288 46.6765 48.6541C51.8095 44.7896 54.3206 37.5693 50.5673 29.4228C46.5657 20.7433 53.2817 16.9033 49.256 7.62434C44.9031 -2.42862 33.1073 -0.687449 27.9256 5.36715Z" fill="#FAC663" fill-opacity="0.15"/>
<path d="M35.688 56.3017C39.3421 53.837 43.9574 53.7769 47.9618 55.7484C59.8679 61.6115 60.6594 80.3117 48.9463 84.0931C34.1352 88.881 22.7768 65.0104 35.688 56.3017Z" fill="#FAC663" fill-opacity="0.15"/>
<path d="M19.5594 45.9129C30.7708 52.9502 29.5667 71.5957 17.4619 74.1494C2.88129 77.226 -6.23228 54.225 6.20453 45.8363C10.1958 43.1441 15.2977 43.2375 19.5594 45.9129Z" fill="#FAC663" fill-opacity="0.15"/>
</svg>
