<svg width="20" height="18" viewBox="0 0 20 18" fill="none" xmlns="http://www.w3.org/2000/svg">
<path d="M4.818 17.011C4.026 15.697 3.495 14.32 3.225 12.88C2.955 11.422 2.928 9.982 3.144 8.56C3.36 7.138 3.819 5.779 4.521 4.483C5.241 3.187 6.195 2.026 7.383 1L9.03 1.999C9.318 2.197 9.444 2.44 9.408 2.728C9.372 2.998 9.273 3.223 9.111 3.403C8.679 3.943 8.292 4.618 7.95 5.428C7.626 6.22 7.41 7.084 7.302 8.02C7.194 8.956 7.23 9.928 7.41 10.936C7.59 11.944 7.968 12.934 8.544 13.906C8.796 14.32 8.868 14.689 8.76 15.013C8.652 15.337 8.418 15.571 8.058 15.715L4.818 17.011ZM13.215 17.011C12.423 15.697 11.892 14.32 11.622 12.88C11.352 11.422 11.325 9.982 11.541 8.56C11.757 7.138 12.216 5.779 12.918 4.483C13.638 3.187 14.592 2.026 15.78 1L17.427 1.999C17.715 2.197 17.841 2.44 17.805 2.728C17.769 2.998 17.67 3.223 17.508 3.403C17.076 3.943 16.689 4.618 16.347 5.428C16.023 6.22 15.807 7.084 15.699 8.02C15.591 8.956 15.627 9.928 15.807 10.936C15.987 11.944 16.365 12.934 16.941 13.906C17.193 14.32 17.265 14.689 17.157 15.013C17.049 15.337 16.815 15.571 16.455 15.715L13.215 17.011Z" fill="#FAC663"/>
</svg>
