<svg width="18" height="18" viewBox="0 0 18 18" fill="none" xmlns="http://www.w3.org/2000/svg">
<path d="M16.1174 15.3134H11.1675V2.6867H13.104V7.68131C12.5221 7.81455 12.0852 8.35506 12.0852 9.00004C12.0852 9.7447 12.6673 10.3505 13.3829 10.3505C14.0984 10.3505 14.6806 9.74474 14.6806 9.00004C14.6806 8.35506 14.2437 7.81455 13.6619 7.68131V2.6867H15.3628C15.8495 2.6867 16.2454 2.27463 16.2454 1.76815V0.918546C16.2454 0.412066 15.8495 0 15.3628 0H2.63721C2.15054 0 1.75459 0.412066 1.75459 0.918546V1.76811C1.75459 2.27463 2.15054 2.68666 2.63721 2.68666H6.8325V15.3133H1.88262C1.39595 15.3133 1 15.7254 1 16.2319V17.0815C1 17.588 1.39595 18 1.88262 18H16.1174C16.6041 18 17 17.5879 17 17.0815V16.2319C17 15.7254 16.6041 15.3134 16.1174 15.3134ZM14.1226 9.00004C14.1226 9.42453 13.7908 9.7699 13.3829 9.7699C12.975 9.7699 12.6431 9.42453 12.6431 9.00004C12.6431 8.57555 12.975 8.23018 13.3829 8.23018C13.7908 8.23018 14.1226 8.57555 14.1226 9.00004ZM2.63721 1.76815V0.918546C2.63721 0.732235 2.91026 0.667969 3.08929 0.667969H15.1753C15.3543 0.667969 15.5 0.732235 15.5 0.918546V1.76811C15.5 1.95442 15.3543 2.00391 15.1753 2.00391H3.08929C2.91026 2.00395 2.63721 1.95446 2.63721 1.76815ZM7.55357 13.2525H7.86606C7.86606 13.2525 8.14503 13.1226 8.14503 12.9622C8.14503 12.8018 8.02013 12.6719 7.86606 12.6719H7.55357V10.6111H10.4971C10.6512 10.6111 11.5938 10.4461 10.8533 10.2858C11.5938 10.1254 10.6512 10.0305 10.4971 10.0305H7.55357V7.96958H10.134C10.288 7.96958 9.855 7.83963 9.855 7.67926C9.855 7.51888 10.288 7.38894 10.134 7.38894L7.55357 7.38894V2.6867L10.4971 2.68666V4.74745L7.31014 4.74745C7.15608 4.74745 7.31014 4.71703 7.31014 4.8774C7.31014 5.3281 7.14701 5.32814 7.14701 5.32814L10.4971 5.3281V7.3889L10.134 7.38894C9.97987 7.38894 9.855 7.51888 9.855 7.67926C9.855 7.83963 9.97987 7.96958 10.134 7.96958L10.4971 7.96955V10.3207V12.6719L7.86606 12.6719C7.712 12.6719 8.14503 12.8018 8.14503 12.9622C8.14503 13.1226 7.712 13.2525 7.86606 13.2525L10.4971 13.2525V15.3133L7.55357 15.3133V13.2525ZM16.3176 17.0815C16.3176 17.2678 16.0362 17.3145 15.8571 17.3145H2.03897C1.85994 17.3145 1.71429 17.2678 1.71429 17.0815V16.232C1.71429 16.0457 1.85994 15.9961 2.03897 15.9961H15.9928C16.1719 15.9961 16.3175 16.0457 16.3175 16.232L16.3176 17.0815Z" fill="#777777"/>
</svg>
