<svg width="18" height="18" viewBox="0 0 18 18" fill="none" xmlns="http://www.w3.org/2000/svg">
<path d="M17.9948 5.9228C17.8909 3.72308 16.2648 2 14.2928 2H3.70685C1.73507 2 0.10916 3.72308 0.00527345 5.92276C0.00175782 5.9956 0 14.1069 0 14.1069C0 15.1507 0.759377 16 1.69278 16H16.3068C17.2404 16 18 15.1508 18 14.1069C18 14.1069 17.9983 5.99603 17.9948 5.9228ZM3.70685 2.875H14.2928C15.7079 2.875 16.8972 3.99937 17.1623 5.50831H16.3574C16.1053 4.47577 15.2704 3.74985 14.293 3.74985H9.1662C8.95013 3.74985 9.55749 3.94576 9.55749 4.18734C9.55749 4.42891 8.95013 4.62482 9.1662 4.62482H14.293C14.837 4.62482 15.3116 4.97909 15.528 5.50827H15.1385C14.1625 5.50827 13.3621 6.36484 13.3074 7.44094C11.9396 6.95822 10.4697 6.7168 8.99991 6.7168C7.53013 6.7168 6.06035 6.95818 4.6927 7.4409C4.63793 6.36484 3.83742 5.50827 2.86127 5.50827H2.47174C2.68809 4.97913 3.1627 4.62482 3.70678 4.62482H9.1662C9.38227 4.62482 9.55749 4.42891 9.55749 4.18734C9.55749 3.94576 9.38227 3.74985 9.1662 3.74985H3.70678C2.72936 3.74985 1.89443 4.47577 1.64236 5.50831H0.83774C1.10282 3.99937 2.29195 2.875 3.70685 2.875ZM13.3044 8.36044V9.84611C13.3044 10.4943 12.8325 11.0217 12.2525 11.0217H5.74711C5.16735 11.0217 4.69569 10.4943 4.69569 9.84611V8.36044C7.41155 7.3336 10.5882 7.3336 13.3044 8.36044ZM17.2174 14.1069C17.2174 14.6682 16.8089 15.125 16.3068 15.125H1.69278C1.19089 15.125 0.782615 14.6683 0.782615 14.1069V13.8107V13.3732V12.9357V6.38332H2.86123C3.44124 6.38332 3.91307 6.9107 3.91307 7.55882V9.84607C3.91307 10.9768 4.73584 11.8966 5.74711 11.8966H12.8572C13.3074 11.8966 14.0869 11.3437 14.0869 9.84611V7.55886C14.0869 6.9107 14.5586 6.38336 15.1383 6.38336H17.2174L17.2174 14.1069Z" fill="#777777"/>
</svg>
