<svg width="60" height="60" viewBox="0 0 60 60" fill="none" xmlns="http://www.w3.org/2000/svg">
<g clip-path="url(#clip0_250_9)">
<path fill-rule="evenodd" clip-rule="evenodd" d="M60 30C60 13.443 46.557 0 30 0C13.443 0 0 13.443 0 30C0 46.557 13.443 60 30 60C46.557 60 60 46.557 60 30Z" fill="#FAC663"/>
<path d="M46.703 31.354C46.556 31.206 43.766 27.719 37.671 27.607C37.083 26.569 34.844 23.193 31.209 23.193H31.098L29.483 20.077C29.373 19.891 29.189 19.78 29.006 19.78H26.509C26.289 19.78 26.105 19.891 26.032 20.077L24.563 23.156H24.086C23.939 23.156 20.487 22.896 16.889 27.57H14.099C13.842 27.57 13.621 27.756 13.548 28.015C13.511 28.238 12.41 33.58 14.246 35.88C14.833 36.584 15.604 36.955 16.559 36.955H17.33C17.587 38.81 19.166 40.22 21.075 40.22C22.984 40.22 24.563 38.81 24.82 36.955H35.541C35.798 38.81 37.377 40.22 39.286 40.22C41.196 40.22 42.774 38.81 43.031 36.955H46.262C46.556 36.955 46.813 36.696 46.813 36.399V31.688C46.813 31.577 46.777 31.428 46.703 31.354ZM31.209 24.269C33.779 24.269 35.541 26.42 36.349 27.607H28.381V24.269H31.209ZM24.049 24.269H27.317V27.607H18.321C21.295 24.157 23.975 24.269 24.049 24.269ZM45.712 35.88H43.031C42.774 34.025 41.196 32.615 39.286 32.615C37.377 32.615 35.798 34.025 35.541 35.88H24.82C24.563 34.025 22.984 32.615 21.075 32.615C19.166 32.615 17.587 34.025 17.33 35.88H16.559C15.934 35.88 15.457 35.657 15.09 35.212C13.952 33.765 14.246 30.389 14.539 28.72H37.34C42.444 28.72 45.124 31.28 45.712 31.91V35.88Z" fill="#FFFDFB"/>
</g>
<defs>
<clipPath id="clip0_250_9">
<rect width="60" height="60" fill="white"/>
</clipPath>
</defs>
</svg>
