<svg width="24" height="24" viewBox="0 0 24 24" fill="none" xmlns="http://www.w3.org/2000/svg">
<path d="M12 24C18.6274 24 24 18.6274 24 12C24 5.37258 18.6274 0 12 0C5.37258 0 0 5.37258 0 12C0 18.6274 5.37258 24 12 24Z" fill="#1A212F"/>
<path fill-rule="evenodd" clip-rule="evenodd" d="M15.8173 17.4282L17.9874 7.6736C18.0092 7.57556 18.0026 7.47381 17.9684 7.37899C17.9341 7.28417 17.8734 7.19976 17.7926 7.13458C17.7119 7.0694 17.614 7.02585 17.5092 7.00847C17.4044 6.9911 17.2966 7.00055 17.1971 7.03582L4.29027 11.6137C4.20368 11.6444 4.12931 11.6996 4.07735 11.7717C4.02539 11.8438 3.9984 11.9292 4.00007 12.0163C4.00175 12.1034 4.03201 12.1879 4.0867 12.2582C4.14139 12.3285 4.21784 12.3811 4.30555 12.4088L7.60432 13.452L15.2638 8.88752C15.2976 8.86731 15.3383 8.85979 15.3778 8.86642C15.4172 8.87306 15.4526 8.89338 15.477 8.92338C15.5013 8.95338 15.5128 8.99087 15.5092 9.02847C15.5056 9.06606 15.4872 9.10103 15.4576 9.12646L9.46841 14.2787L9.13612 17.3065L9.17722 17.349C9.20039 17.373 9.22839 17.3923 9.2596 17.406C9.29081 17.4196 9.3246 17.4273 9.35898 17.4285C9.39338 17.4298 9.42768 17.4245 9.4599 17.4132C9.49212 17.4018 9.52161 17.3844 9.54664 17.3622L11.459 15.6635L14.6156 17.8593C14.7186 17.9309 14.839 17.977 14.9659 17.9934C15.0927 18.0097 15.2219 17.9958 15.3415 17.9529C15.4612 17.9099 15.5675 17.8394 15.6506 17.7477C15.7337 17.656 15.791 17.5462 15.8173 17.4282Z" fill="#FFFDFB"/>
</svg>
