<svg xmlns="http://www.w3.org/2000/svg" xmlns:xlink="http://www.w3.org/1999/xlink" xmlns:svgjs="http://svgjs.com/svgjs" width="256" height="256"><svg width="256" height="256" viewBox="0 0 256 256" fill="none" xmlns="http://www.w3.org/2000/svg"><path d="M179.188 51.169l48.086-48.106C233.815-3.48 245 1.154 245 10.41v128.544c-.001-41.694-33.002-67.052-65.812-87.785z" fill="#FF7236"/><path d="M244.998 138.954c0 64.643-52.382 117.046-116.999 117.046C63.383 256 11 203.597 11 138.954c0-64.642 52.382-109.73 116.999-109.73 64.618 0 116.999 45.087 116.999 109.73z" fill="#FFAA50"/><path d="M76.813 138.953c0-56.336 32.334-97.794 75.394-107.526A133.988 133.988 0 00128 29.223c-21.531 0-41.635 5.1-58.963 14.166L28.727 3.063C22.184-3.48 11 1.154 11 10.41v128.544c0-2.638 0-2.624 0 0C11 203.597 63.383 256 127.999 256c8.304 0 16.394-.894 24.207-2.539-43.059-11.159-75.393-58.172-75.393-114.507z" fill="#FF7236"/><path d="M102.406 212.107c14.135 0 25.593-9.826 25.593-21.946 0-12.121-11.458-21.946-25.593-21.946s-25.594 9.825-25.594 21.946c0 12.12 11.459 21.946 25.594 21.946zm51.191 0c14.135 0 25.593-9.826 25.593-21.946 0-12.121-11.458-21.946-25.593-21.946s-25.594 9.825-25.594 21.946c0 12.12 11.459 21.946 25.594 21.946z" fill="#FFFDFB"/><path d="M128 190.165c8.077 0 14.625-6.55 14.625-14.63 0-8.081-6.548-14.631-14.625-14.631s-14.625 6.55-14.625 14.631c0 8.08 6.548 14.63 14.625 14.63z" fill="#FF913C"/><path d="M84.125 146.268a7.311 7.311 0 01-7.313-7.315v-7.315a7.312 7.312 0 1114.625 0v7.315a7.312 7.312 0 01-7.312 7.315zm87.75 0a7.312 7.312 0 01-7.313-7.315v-7.315a7.313 7.313 0 1114.625 0v7.315a7.31 7.31 0 01-7.312 7.315z" fill="#1A212F"/></svg><style>@media (prefers-color-scheme:light){:root{filter:none}}</style></svg>