<svg width="84" height="85" viewBox="0 0 84 85" fill="none" xmlns="http://www.w3.org/2000/svg"><path d="M71.036 35.671C55.97 36.95 45.26 18.245 56.939 10.368c5.038-3.398 12.032-2.668 17.342.714 12.264 7.811 9.69 23.493-3.245 24.59zm-12.612 5.296c12.919-8.714 32.054 9.936 22.291 21.71-4.448 5.363-13.55 5.832-20.606.227-7.912-6.28-8.947-17.039-1.685-21.937z" fill="#FAC663" fill-opacity=".15"/><path d="M27.926 5.367c-1.45 1.69-4.41 4.148-7.712 6.44-3.487 2.427-7.35 4.67-10.197 5.64C2.322 20.054-3.425 30.18 4.778 37.625c7.585 6.882 13.65 2.108 20.663 8.748 7.084 6.714 15.689 6.456 21.235 2.281 5.133-3.864 7.645-11.085 3.891-19.231-4.001-8.68 2.715-12.52-1.311-21.799-4.353-10.053-16.149-8.311-21.33-2.257zm7.762 50.935c3.654-2.465 8.27-2.525 12.274-.554 11.906 5.864 12.697 24.564.984 28.345-14.81 4.788-26.17-19.083-13.258-27.791z" fill="#FAC663" fill-opacity=".15"/><path d="M19.56 45.913c11.21 7.037 10.007 25.683-2.098 28.236C2.882 77.226-6.232 54.225 6.205 45.836c3.99-2.692 9.093-2.599 13.354.077z" fill="#FAC663" fill-opacity=".15"/></svg>