<svg width="230" height="234" viewBox="0 0 230 234" fill="none" xmlns="http://www.w3.org/2000/svg"><path d="M148.121 190.935c-10.695-39.414 35.486-77.062 62.663-49.885 11.721 11.721 13.06 30.671 6.319 46.445-15.569 36.43-59.805 37.284-68.982 3.44zm-20.542-30.922c30.061 30.061-11.952 90.075-48.898 69.902-16.831-9.192-22.462-33.153-10.46-54.66 13.448-24.111 42.458-32.142 59.358-15.242z" fill="#FAC663" fill-opacity=".15"/><path d="M210.652 61.477c-5.328-3.021-13.48-9.688-21.343-17.336-8.318-8.078-16.314-17.248-20.331-24.337C158.155.629 127.644-9.677 111.141 15.78c-15.253 23.538.733 37.315-14.129 59.216-15.031 22.123-10.217 44.868 3.879 57.562 13.047 11.747 34.047 14.879 54.596.905 21.893-14.896 35.629 1.071 59.154-14.183 25.492-16.503 15.088-47.002-3.989-57.804zM74.674 107.105c8.503 8.503 10.87 20.741 7.375 32.352-10.397 34.523-61.302 45.804-77.262 16.526-20.199-37.018 39.843-78.923 69.887-48.878z" fill="#FAC663" fill-opacity=".15"/><path d="M95.467 59.137C81.518 92.39 29.81 98.339 17.03 67.417 1.635 30.173 60.363-5.338 89.304 23.603c9.287 9.287 11.466 22.894 6.163 35.535z" fill="#FAC663" fill-opacity=".15"/></svg>