<svg width="113" height="110" viewBox="0 0 113 110" fill="none" xmlns="http://www.w3.org/2000/svg"><path d="M29.261 29.81c11.936 14.598-.449 39.08-17.031 32.715C5.078 59.779.944 52.05.815 44.148.518 25.898 19.014 17.274 29.26 29.81zm14.489 9.182C25.41 31.952 31.822-1.17 51.206.42c8.83.726 15.72 9.763 14.71 21.062-1.13 12.666-11.853 21.468-22.164 17.51z" fill="#FAC663" fill-opacity=".15"/><path d="M27.277 96.007c2.817.276 7.511 1.56 12.268 3.311 5.03 1.848 10.13 4.215 13.16 6.45 8.178 6.051 22.988 4.69 25.152-9.114 1.999-12.762-7.34-15.576-5.197-27.575 2.172-12.124-4.144-20.802-12.48-23.514-7.717-2.508-17.164.097-23.198 9.822-6.428 10.363-15.23 6.206-22.278 17.025-7.642 11.713 2.492 22.611 12.573 23.595zm48.755-44.622c-5.188-1.992-8.492-6.703-9.206-12.245C64.707 22.66 84.053 8.398 96.3 17.744c15.493 11.813-1.935 40.678-20.268 33.641z" fill="#FAC663" fill-opacity=".15"/><path d="M76.3 75.469c-.382-16.609 20.306-28.776 31.522-18.144 13.51 12.807-4.569 38.734-22.228 31.955-5.667-2.175-9.15-7.498-9.294-13.811z" fill="#FAC663" fill-opacity=".15"/></svg>