<svg width="60" height="60" viewBox="0 0 60 60" fill="none" xmlns="http://www.w3.org/2000/svg"><g clip-path="url(#clip0_250_9)"><path fill-rule="evenodd" clip-rule="evenodd" d="M60 30C60 13.443 46.557 0 30 0 13.443 0 0 13.443 0 30c0 16.557 13.443 30 30 30 16.557 0 30-13.443 30-30z" fill="#FAC663"/><path d="M46.703 31.354c-.147-.148-2.937-3.635-9.032-3.747-.588-1.038-2.827-4.414-6.462-4.414h-.111l-1.615-3.116a.571.571 0 00-.477-.297h-2.497c-.22 0-.404.111-.477.297l-1.469 3.079h-.477c-.147 0-3.599-.26-7.197 4.414h-2.79c-.257 0-.478.186-.551.445-.037.223-1.138 5.565.698 7.865.587.704 1.358 1.075 2.313 1.075h.771a3.778 3.778 0 003.745 3.265 3.778 3.778 0 003.745-3.265h10.721a3.778 3.778 0 003.745 3.265c1.91 0 3.488-1.41 3.745-3.265h3.231a.567.567 0 00.551-.556v-4.711c0-.111-.036-.26-.11-.334zm-15.494-7.085c2.57 0 4.332 2.151 5.14 3.338h-7.968v-3.338h2.828zm-7.16 0h3.268v3.338h-8.996c2.974-3.45 5.654-3.338 5.728-3.338zM45.712 35.88h-2.681a3.778 3.778 0 00-3.745-3.265 3.778 3.778 0 00-3.745 3.265H24.82a3.778 3.778 0 00-3.745-3.265 3.778 3.778 0 00-3.745 3.265h-.771c-.625 0-1.102-.223-1.469-.668-1.138-1.447-.844-4.823-.551-6.492H37.34c5.104 0 7.784 2.56 8.372 3.19v3.97z" fill="#FFFDFB"/></g><defs><clipPath id="clip0_250_9"><path fill="#fff" d="M0 0h60v60H0z"/></clipPath></defs></svg>